<svg width="16" height="16" viewBox="0 0 16 16" fill="none" xmlns="http://www.w3.org/2000/svg">
<path d="M8.06494 3.98725C8.4605 3.98725 8.84718 4.10455 9.17608 4.32431C9.50498 4.54407 9.76132 4.85643 9.9127 5.22188C10.0641 5.58733 10.1037 5.98947 10.0265 6.37743C9.94934 6.76539 9.75886 7.12176 9.47915 7.40146C9.19945 7.68117 8.84308 7.87165 8.45512 7.94882C8.06716 8.02599 7.66503 7.98638 7.29957 7.83501C6.93412 7.68363 6.62176 7.42729 6.402 7.09839C6.18224 6.76949 6.06494 6.38281 6.06494 5.98725C6.06554 5.457 6.27645 4.94864 6.65139 4.5737C7.02634 4.19876 7.53469 3.98785 8.06494 3.98725ZM8.06494 6.98725C8.26272 6.98725 8.45606 6.9286 8.62051 6.81872C8.78496 6.70884 8.91313 6.55266 8.98882 6.36993C9.06451 6.18721 9.08431 5.98614 9.04573 5.79216C9.00714 5.59818 8.9119 5.41999 8.77205 5.28014C8.63219 5.14029 8.45401 5.04505 8.26003 5.00646C8.06605 4.96788 7.86498 4.98768 7.68226 5.06337C7.49953 5.13906 7.34335 5.26723 7.23347 5.43168C7.12359 5.59613 7.06494 5.78947 7.06494 5.98725C7.06525 6.25237 7.1707 6.50655 7.35817 6.69402C7.54564 6.88149 7.79982 6.98694 8.06494 6.98725Z" fill="#222222"/>
<path d="M4.22175 2.14109C5.17198 1.19111 6.44042 0.626777 7.78226 0.557018C9.12411 0.48726 10.4442 0.91702 11.4878 1.76335C12.5315 2.60969 13.2246 3.81259 13.4334 5.13992C13.6423 6.46724 13.3521 7.82488 12.6188 8.95081L8.84047 14.7512C8.75639 14.8803 8.64143 14.9863 8.506 15.0597C8.37057 15.1331 8.21897 15.1716 8.06492 15.1716C7.91088 15.1716 7.75928 15.1331 7.62385 15.0597C7.48842 14.9863 7.37346 14.8803 7.28938 14.7512L3.51091 8.95081C2.83052 7.90635 2.52984 6.65974 2.65925 5.41995C2.78867 4.18016 3.34033 3.02253 4.22175 2.14109ZM4.34879 8.40497L8.06491 14.1097L11.7811 8.40497C12.9186 6.65875 12.6746 4.32187 11.201 2.84819C10.7891 2.43635 10.3002 2.10966 9.76214 1.88677C9.22405 1.66388 8.64733 1.54916 8.06491 1.54916C7.48249 1.54916 6.90577 1.66388 6.36768 1.88677C5.82959 2.10966 5.34068 2.43635 4.92885 2.84819C3.45522 4.32187 3.21129 6.65875 4.34879 8.40497Z" fill="#222222"/>
</svg>
