<svg width="215" height="103" viewBox="0 0 215 103" fill="none" xmlns="http://www.w3.org/2000/svg">
<path d="M31.324 82.82C27.3333 82.82 23.6707 82.1093 20.336 80.688C17.0013 79.2667 14.104 77.244 11.644 74.62C9.184 71.9413 7.27067 68.798 5.904 65.19C4.592 61.582 3.936 57.6187 3.936 53.3C3.936 49.2 4.64667 45.4007 6.068 41.902C7.544 38.3487 9.56667 35.2327 12.136 32.554C14.7053 29.8753 17.6847 27.798 21.074 26.322C24.4633 24.846 28.126 24.108 32.062 24.108C34.85 24.108 37.556 24.5453 40.18 25.42C42.8587 26.24 45.264 27.4153 47.396 28.946C49.5827 30.422 51.3593 32.1167 52.726 34.03L46.822 40.18C44.4713 37.7747 42.066 35.9707 39.606 34.768C37.146 33.5653 34.6313 32.964 32.062 32.964C29.3833 32.964 26.8687 33.4833 24.518 34.522C22.222 35.506 20.1993 36.9 18.45 38.704C16.7553 40.508 15.416 42.6673 14.432 45.182C13.448 47.642 12.956 50.348 12.956 53.3C12.956 56.416 13.4207 59.2587 14.35 61.828C15.334 64.3427 16.7007 66.502 18.45 68.306C20.1993 70.11 22.2767 71.504 24.682 72.488C27.142 73.4173 29.848 73.882 32.8 73.882C34.604 73.882 36.3807 73.636 38.13 73.144C39.8793 72.652 41.5193 71.9413 43.05 71.012C44.5807 70.0827 45.9747 68.9893 47.232 67.732L51.66 74.948C50.4027 76.424 48.6807 77.7633 46.494 78.966C44.362 80.1687 41.9567 81.1253 39.278 81.836C36.654 82.492 34.0027 82.82 31.324 82.82ZM75.6623 82L57.4583 38.95H66.5603L79.6803 71.176L78.1223 71.914L92.1443 38.95H100.836L81.7303 82H75.6623ZM128.408 82.82C123.707 82.82 119.552 81.8907 115.944 80.032C112.391 78.1733 109.329 75.3853 106.76 71.668L112.828 64.698C115.507 68.5247 118.076 71.176 120.536 72.652C122.996 74.128 125.921 74.866 129.31 74.866C131.387 74.866 133.273 74.538 134.968 73.882C136.663 73.226 138.002 72.324 138.986 71.176C139.97 70.028 140.462 68.716 140.462 67.24C140.462 66.256 140.298 65.3267 139.97 64.452C139.642 63.5773 139.123 62.7847 138.412 62.074C137.756 61.3633 136.881 60.7073 135.788 60.106C134.749 59.5047 133.519 58.9853 132.098 58.548C130.677 58.056 129.037 57.646 127.178 57.318C124.226 56.7167 121.657 55.924 119.47 54.94C117.283 53.956 115.452 52.726 113.976 51.25C112.5 49.774 111.407 48.1067 110.696 46.248C109.985 44.3347 109.63 42.2027 109.63 39.852C109.63 36.736 110.505 33.9753 112.254 31.57C114.003 29.1647 116.354 27.2787 119.306 25.912C122.313 24.4907 125.675 23.78 129.392 23.78C133.82 23.78 137.674 24.6547 140.954 26.404C144.289 28.0987 146.913 30.586 148.826 33.866L142.594 40.016C140.954 37.3373 138.986 35.2873 136.69 33.866C134.449 32.4447 131.934 31.734 129.146 31.734C127.014 31.734 125.155 32.062 123.57 32.718C121.985 33.374 120.727 34.3033 119.798 35.506C118.923 36.654 118.486 38.0207 118.486 39.606C118.486 40.754 118.705 41.82 119.142 42.804C119.579 43.7333 120.235 44.5807 121.11 45.346C122.039 46.0567 123.269 46.7127 124.8 47.314C126.331 47.8607 128.162 48.3527 130.294 48.79C133.301 49.446 135.979 50.2933 138.33 51.332C140.681 52.316 142.676 53.4913 144.316 54.858C145.956 56.2247 147.186 57.7553 148.006 59.45C148.881 61.1447 149.318 62.976 149.318 64.944C149.318 68.6067 148.471 71.7773 146.776 74.456C145.081 77.1347 142.676 79.212 139.56 80.688C136.444 82.1093 132.727 82.82 128.408 82.82ZM184.17 82.492C179.742 82.492 175.779 81.5353 172.28 79.622C168.781 77.654 166.021 74.9753 163.998 71.586C162.03 68.142 161.046 64.2607 161.046 59.942V24.518H169.902V59.204C169.902 61.992 170.558 64.5067 171.87 66.748C173.182 68.9347 174.904 70.684 177.036 71.996C179.223 73.308 181.601 73.964 184.17 73.964C186.903 73.964 189.363 73.308 191.55 71.996C193.791 70.684 195.568 68.9347 196.88 66.748C198.192 64.5067 198.848 61.992 198.848 59.204V24.518H207.294V59.942C207.294 64.2607 206.283 68.142 204.26 71.586C202.292 74.9753 199.559 77.654 196.06 79.622C192.561 81.5353 188.598 82.492 184.17 82.492Z" fill="black"/>
<circle cx="99" cy="30" r="6" fill="#195905"/>
</svg>
